<?xml version="1.0" encoding="UTF-8" standalone="no"?>
<!-- Created with Inkscape (http://www.inkscape.org/) -->

<svg
   xmlns:dc="http://purl.org/dc/elements/1.1/"
   xmlns:cc="http://creativecommons.org/ns#"
   xmlns:rdf="http://www.w3.org/1999/02/22-rdf-syntax-ns#"
   xmlns:svg="http://www.w3.org/2000/svg"
   xmlns="http://www.w3.org/2000/svg"
   xmlns:sodipodi="http://sodipodi.sourceforge.net/DTD/sodipodi-0.dtd"
   xmlns:inkscape="http://www.inkscape.org/namespaces/inkscape"
   id="svg3039"
   version="1.1"
   inkscape:version="0.48.4 r9939"
   width="246.3895"
   height="140.37399"
   sodipodi:docname="logo.svg">
  <metadata
     id="metadata3045">
    <rdf:RDF>
      <cc:Work
         rdf:about="">
        <dc:format>image/svg+xml</dc:format>
        <dc:type
           rdf:resource="http://purl.org/dc/dcmitype/StillImage" />
        <dc:title></dc:title>
      </cc:Work>
    </rdf:RDF>
  </metadata>
  <defs
     id="defs3043">
    <filter
       id="filter3088"
       color-interpolation-filters="sRGB"
       height="1"
       width="1"
       y="0"
       x="0">
      <feColorMatrix
         id="feColorMatrix3090"
         type="saturate"
         values="1"
         result="fbSourceGraphic" />
      <feColorMatrix
         id="feColorMatrix3092"
         in="fbSourceGraphic"
         values="-1 0 0 0 1 0 -1 0 0 1 0 0 -1 0 1 0 0 0 1 0 " />
    </filter>
  </defs>
  <sodipodi:namedview
     pagecolor="#000000"
     bordercolor="#666666"
     borderopacity="1"
     objecttolerance="10"
     gridtolerance="10"
     guidetolerance="10"
     inkscape:pageopacity="0"
     inkscape:pageshadow="2"
     inkscape:window-width="1920"
     inkscape:window-height="1025"
     id="namedview3041"
     showgrid="false"
     fit-margin-top="0"
     fit-margin-left="0"
     fit-margin-right="0"
     fit-margin-bottom="0"
     inkscape:zoom="3.8762887"
     inkscape:cx="120.13354"
     inkscape:cy="73.616364"
     inkscape:window-x="-2"
     inkscape:window-y="-3"
     inkscape:window-maximized="1"
     inkscape:current-layer="svg3039" />
  <g
     style="font-size:40px;font-style:normal;font-variant:normal;font-weight:300;font-stretch:normal;line-height:125%;letter-spacing:0px;word-spacing:0px;fill:#caab00;fill-opacity:1;stroke:#caab00;stroke-width:7.75000000000000000;stroke-linecap:butt;stroke-miterlimit:4;stroke-opacity:1;font-family:Circe Source Code;-inkscape-font-specification:Circe Source Code Light"
     id="text3821">
    <path
       d="m 3.875,3.8749999 35.712,0 0,79.9200001 c -4.7e-5,5.184017 1.199951,8.928014 3.6,11.232 2.495946,2.208009 5.855943,3.312008 10.08,3.312 3.839935,8e-6 8.255931,-1.103991 13.248,-3.312 l 3.024,8.928 c -3.168074,1.152 -6.144071,2.112 -8.928,2.88 -2.784066,0.864 -6.096062,1.296 -9.936,1.296 -7.488051,0 -13.200045,-2.112 -17.136,-6.336 -3.840038,-4.223991 -5.760036,-10.511985 -5.76,-18.864 l 0,-69.408 -23.904,0 0,-9.6480001"
       style="font-size:144px;fill:#caab00;stroke:#caab00;-inkscape-font-specification:Circe Source Code Light;fill-opacity:1"
       id="path4064" />
    <path
       d="m 90.65075,125.699 c 0.959987,0.28798 1.967986,0.52798 3.024,0.72 1.151984,0.19198 2.255983,0.28798 3.312,0.288 4.89598,-2e-5 8.87997,-1.44002 11.952,-4.32 3.07197,-2.78401 5.47196,-6.33601 7.2,-10.656 l 2.16,-5.184 -32.688,-70.128 11.952,0 17.136,38.736 c 1.34396,3.072028 2.73596,6.384025 4.176,9.936 1.53596,3.552018 3.02396,7.008014 4.464,10.368 l 0.576,0 c 1.24795,-3.359986 2.49595,-6.767982 3.744,-10.224 1.34395,-3.551975 2.59195,-6.911972 3.744,-10.08 l 15.264,-38.736 11.232,0 -30.816,75.744 c -1.34405,3.45599 -2.88005,6.67199 -4.608,9.648 -1.72804,2.97598 -3.79204,5.51998 -6.192,7.632 -2.40004,2.20797 -5.18403,3.93597 -8.352,5.184 -3.07203,1.24797 -6.57602,1.87197 -10.512,1.872 -3.456015,-3e-5 -6.528012,-0.48003 -9.216,-1.44 l 2.448,-9.36 0,0"
       style="font-size:144px;fill:#caab00;stroke:#caab00;-inkscape-font-specification:Circe Source Code Light;fill-opacity:1"
       id="path4066" />
    <path
       d="m 176.4185,71.555 c -1e-5,-5.855959 1.00799,-11.039954 3.024,-15.552 2.11198,-4.607945 4.94398,-8.495941 8.496,-11.664 3.55197,-3.167935 7.67997,-5.567932 12.384,-7.2 4.79996,-1.631929 9.83995,-2.447928 15.12,-2.448 5.75994,7.2e-5 10.70394,1.008071 14.832,3.024 4.22393,2.016067 7.77593,4.416064 10.656,7.2 l -5.904,7.632 c -2.88007,-2.495944 -5.90406,-4.463942 -9.072,-5.904 -3.07206,-1.439939 -6.43205,-2.159938 -10.08,-2.16 -4.03205,6.2e-5 -7.72804,0.672061 -11.088,2.016 -3.36004,1.248059 -6.24003,3.072057 -8.64,5.472 -2.30403,2.400052 -4.12803,5.280049 -5.472,8.64 -1.34402,3.264042 -2.01602,6.912039 -2.016,10.944 -2e-5,4.032031 0.62398,7.680027 1.872,10.944 1.34397,3.264021 3.16797,6.096018 5.472,8.496 2.39997,2.304013 5.23196,4.128011 8.496,5.472 3.35996,1.248009 7.05595,1.872008 11.088,1.872 4.31994,8e-6 8.25594,-0.815991 11.808,-2.448 3.64793,-1.727988 6.95993,-3.839986 9.936,-6.336 l 5.184,7.632 c -3.84007,3.45601 -8.16007,6.144 -12.96,8.064 -4.70406,1.92 -9.64806,2.88 -14.832,2.88 -5.47204,0 -10.56004,-0.816 -15.264,-2.448 -4.60803,-1.632 -8.64003,-3.984 -12.096,-7.056 -3.45602,-3.167989 -6.14402,-7.007985 -8.064,-11.52 -1.92001,-4.607976 -2.88001,-9.791971 -2.88,-15.552"
       style="font-size:144px;fill:#caab00;stroke:#caab00;-inkscape-font-specification:Circe Source Code Light;fill-opacity:1"
       id="path4068" />
  </g>
</svg>
