<?xml version="1.0" encoding="UTF-8" standalone="no"?>
<!-- Created with Inkscape (http://www.inkscape.org/) -->

<svg
   xmlns:dc="http://purl.org/dc/elements/1.1/"
   xmlns:cc="http://creativecommons.org/ns#"
   xmlns:rdf="http://www.w3.org/1999/02/22-rdf-syntax-ns#"
   xmlns:svg="http://www.w3.org/2000/svg"
   xmlns="http://www.w3.org/2000/svg"
   version="1.1"
   width="298.44879"
   height="273.27145"
   id="svg2"
   xml:space="preserve"><metadata
     id="metadata8"><rdf:RDF><cc:Work
         rdf:about=""><dc:format>image/svg+xml</dc:format><dc:type
           rdf:resource="http://purl.org/dc/dcmitype/StillImage" /><dc:title></dc:title></cc:Work></rdf:RDF></metadata><defs
     id="defs6"><filter
       x="0"
       y="0"
       width="1"
       height="1"
       color-interpolation-filters="sRGB"
       id="filter3088"><feColorMatrix
         result="fbSourceGraphic"
         values="1"
         type="saturate"
         id="feColorMatrix3090" /><feColorMatrix
         values="-1 0 0 0 1 0 -1 0 0 1 0 0 -1 0 1 0 0 0 1 0 "
         in="fbSourceGraphic"
         id="feColorMatrix3092" /></filter></defs><g
     transform="matrix(1.25,0,0,-1.25,-13.442234,843.08885)"
     id="g10"><g
       id="g3070"
       style="filter:url(#filter3088)"><path
         d="m 116.872,556.434 c -1.372,1.589 -2.879,2.651 -3.77,4.683 -1.727,3.932 0.377,7.307 3.813,9.51 3.116,1.999 7.752,3.327 11.358,2.08 4.582,-1.584 4.663,-4.418 3.411,-8.409 -0.002,-0.009 -5.756,-18.356 -14.812,-7.864"
         id="path14"
         style="fill:#231f20;fill-opacity:1;fill-rule:nonzero;stroke:none" /><path
         d="m 120.316,560.529 c -0.024,0.208 -0.027,0.427 -0.003,0.662 0.344,3.269 3.811,5.312 6.856,4.952 4.124,-0.489 1.962,-4.86 0.026,-6.925 -1.856,-1.98 -6.545,-1.552 -6.879,1.311"
         id="path16"
         style="fill:#ffffff;fill-opacity:1;fill-rule:nonzero;stroke:none" /><path
         d="m 120.316,560.529 c -0.024,0.208 -0.027,0.427 -0.003,0.662 0.344,3.269 3.811,5.312 6.856,4.952 4.124,-0.489 1.962,-4.86 0.026,-6.925 -1.856,-1.98 -6.545,-1.552 -6.879,1.311 z"
         id="path18"
         style="fill:none;stroke:#231f20;stroke-width:1;stroke-linecap:butt;stroke-linejoin:miter;stroke-miterlimit:10;stroke-opacity:1;stroke-dasharray:none" /><path
         d="m 165.817,552.565 c -0.003,0.007 0,0 1.081,0.967 0.672,0.679 1.639,1.775 2.51,3.506 0.871,1.718 1.582,4.102 1.719,6.926 0.152,2.824 -0.25,6.036 -1.168,9.37 -0.457,1.669 -1.039,3.371 -1.73,5.091 -0.346,0.861 -0.719,1.725 -1.117,2.593 l -0.074,0.161 c -0.03,0.062 -0.04,0.091 -0.091,0.185 l -0.259,0.486 -0.291,0.46 -0.156,0.286 -0.641,1.166 c -0.875,1.581 -1.831,3.278 -2.957,5.059 -1.131,1.777 -2.434,3.645 -4.075,5.522 -0.824,0.937 -1.726,1.875 -2.748,2.782 -0.504,0.456 -1.047,0.904 -1.607,1.337 -0.543,0.419 -1.172,0.872 -1.828,1.286 -2.614,1.676 -5.666,2.829 -8.591,3.44 -2.937,0.622 -5.726,0.777 -8.245,0.815 -1.26,0.018 -2.461,0.004 -3.599,-0.012 l -1.661,-0.019 -1.627,-0.005 c -4.931,-0.009 -9.938,-0.351 -14.843,-1.286 -4.898,-0.927 -9.732,-2.459 -14.1088,-4.836 -2.1848,-1.188 -4.245,-2.59 -6.0809,-4.184 -0.9199,-0.795 -1.7816,-1.64 -2.5766,-2.519 -0.3996,-0.436 -0.7793,-0.89 -1.1429,-1.341 -0.184,-0.228 -0.3575,-0.461 -0.5328,-0.688 l -0.2555,-0.35 c -0.1027,-0.138 -0.2289,-0.293 -0.3371,-0.45 -0.2438,-0.354 -0.3746,-0.567 -0.5285,-0.827 -0.1524,-0.248 -0.2954,-0.505 -0.4371,-0.757 -0.2778,-0.51 -0.5391,-1.019 -0.7723,-1.533 -0.475,-1.024 -0.8535,-2.056 -1.1613,-3.065 -0.6075,-2.025 -0.9063,-3.968 -1.0215,-5.761 -0.2192,-3.598 0.2047,-6.613 0.6711,-9.161 0.4797,-2.548 1.039,-4.648 1.4968,-6.359 l 1.4723,-5.311 c 0.0024,-0.004 0.5469,1.915 1.232,5.4 0.352,1.732 0.7426,3.853 1.2746,6.204 0.5368,2.342 1.2235,4.936 2.3086,7.373 0.5418,1.218 1.1891,2.382 1.9485,3.434 0.3816,0.526 0.7867,1.027 1.2269,1.494 0.2172,0.234 0.4473,0.46 0.6789,0.681 0.118,0.109 0.2344,0.217 0.3575,0.323 0.1136,0.102 0.2687,0.24 0.3066,0.238 0.0363,0.019 0.0695,0.028 0.1172,0.059 l 0.2058,0.158 0.4239,0.302 c 0.2855,0.198 0.5742,0.392 0.8758,0.579 0.5978,0.373 1.2228,0.721 1.8788,1.045 1.309,0.646 2.737,1.197 4.281,1.657 3.087,0.923 6.637,1.485 10.519,1.791 3.883,0.312 8.079,0.372 12.554,0.378 l 0.93,0.004 0.961,0.016 1.836,0.063 3.32,0.15 c 2.059,0.088 3.804,0.101 5.244,-0.029 1.449,-0.13 2.59,-0.376 3.694,-0.806 0.275,-0.107 0.541,-0.226 0.875,-0.396 0.312,-0.162 0.623,-0.326 0.937,-0.518 0.631,-0.367 1.27,-0.808 1.912,-1.286 2.584,-1.933 5.141,-4.595 7.745,-7.212 l 0.984,-0.984 0.25,-0.246 c 0.037,-0.025 0.072,-0.043 0.11,-0.065 l 0.103,-0.068 c 0.01,0.002 0.058,-0.06 0.088,-0.091 l 0.101,-0.116 c 0.543,-0.608 1.065,-1.207 1.565,-1.803 1,-1.192 1.911,-2.358 2.724,-3.5 1.627,-2.279 2.85,-4.467 3.623,-6.505 0.782,-2.039 1.096,-3.937 1.095,-5.55 0.003,-1.613 -0.284,-2.922 -0.531,-3.803 -0.252,-0.88 -0.446,-1.343 -0.442,-1.345"
         id="path20"
         style="fill:#231f20;fill-opacity:1;fill-rule:nonzero;stroke:none" /><path
         d="m 121.339,547.976 2.788,-0.645 c 1.766,-0.389 4.229,-0.971 7.389,-1.389 1.586,-0.204 3.353,-0.362 5.353,-0.341 2.002,0.031 4.245,0.212 6.802,0.925 1.277,0.361 2.636,0.861 4.03,1.602 1.39,0.739 2.822,1.732 4.112,3.013 1.291,1.275 2.407,2.843 3.179,4.507 0.78,1.663 1.225,3.395 1.403,5.031 0.176,1.643 0.102,3.161 -0.104,4.549 -0.103,0.695 -0.24,1.359 -0.404,1.995 -0.082,0.327 -0.166,0.642 -0.299,1.087 -0.125,0.404 -0.255,0.772 -0.4,1.143 -1.17,2.952 -2.981,5.18 -4.874,6.887 -1.904,1.713 -3.931,2.927 -5.898,3.817 -1.971,0.887 -3.893,1.443 -5.667,1.772 -3.558,0.658 -6.493,0.381 -8.377,-0.055 -1.897,-0.44 -2.792,-0.98 -2.796,-0.965 -0.012,-0.009 0.918,-0.525 2.221,-1.558 1.303,-1.03 2.937,-2.604 4.447,-4.582 0.756,-0.987 1.488,-2.07 2.132,-3.201 0.642,-1.129 1.198,-2.311 1.567,-3.433 0.975,-2.883 1.327,-6.904 -1.078,-9.143 -0.902,-0.84 -2.151,-1.719 -3.439,-2.56 -1.297,-0.842 -2.641,-1.66 -3.901,-2.446 -2.535,-1.568 -4.69,-3.033 -6.086,-4.156 -1.409,-1.117 -2.098,-1.856 -2.1,-1.854"
         id="path22"
         style="fill:#231f20;fill-opacity:1;fill-rule:nonzero;stroke:none" /><path
         d="m 131.803,543.155 c 0.008,0.015 -1.16,0.05 -2.99,0.41 -1.825,0.358 -4.259,1.148 -6.544,2.635 -2.297,1.468 -4.448,3.588 -6.185,6.094 -3.015,4.33 -7.786,12.33 -3.023,16.97 1.002,0.974 2.288,1.874 3.566,2.667 2.587,1.58 5.108,2.782 6.84,3.654 1.751,0.863 2.763,1.391 2.76,1.395 -0.003,-0.004 -0.987,0.554 -2.846,1.31 -0.931,0.376 -2.085,0.799 -3.469,1.191 -1.387,0.392 -3.004,0.758 -4.892,0.954 -1.888,0.186 -4.054,0.228 -6.558,-0.268 -1.249,-0.252 -2.586,-0.65 -3.976,-1.293 -1.385,-0.643 -2.83,-1.545 -4.172,-2.775 -1.3421,-1.224 -2.5577,-2.784 -3.4605,-4.514 -0.9109,-1.728 -1.5097,-3.596 -1.834,-5.412 -0.3265,-1.821 -0.3972,-3.601 -0.3011,-5.288 0.0476,-0.846 0.1394,-1.667 0.2625,-2.473 l 0.0484,-0.3 c 0.0227,-0.126 0.0445,-0.282 0.0777,-0.43 L 95.2527,557 c 0.0965,-0.418 0.2028,-0.837 0.32,-1.253 0.9429,-3.324 2.5468,-6.295 4.5003,-8.758 1.956,-2.471 4.261,-4.45 6.673,-5.926 2.413,-1.479 4.933,-2.457 7.35,-2.99 2.419,-0.539 4.73,-0.629 6.769,-0.415 2.042,0.213 3.806,0.724 5.239,1.335 1.437,0.614 2.546,1.32 3.384,1.953 0.836,0.635 1.405,1.2 1.774,1.591 0.369,0.394 0.54,0.62 0.541,0.618"
         id="path24"
         style="fill:#231f20;fill-opacity:1;fill-rule:nonzero;stroke:none" /><path
         d="m 159.338,559.057 c -0.003,0.002 -0.1,-0.456 -0.317,-1.3 -0.219,-0.839 -0.568,-2.064 -1.142,-3.541 -0.574,-1.476 -1.382,-3.201 -2.524,-5.003 -1.133,-1.802 -2.602,-3.672 -4.422,-5.465 -1.82,-1.796 -3.992,-3.515 -6.476,-5.053 -2.482,-1.541 -5.277,-2.905 -8.29,-3.99 -3.009,-1.084 -6.239,-1.892 -9.505,-2.288 -1.631,-0.199 -3.268,-0.293 -4.87,-0.263 -0.799,0.015 -1.591,0.059 -2.366,0.139 -0.388,0.037 -0.771,0.086 -1.151,0.142 l -0.58,0.091 -0.704,0.119 c -3.362,0.584 -6.395,1.578 -9.225,2.986 -2.823,1.407 -5.435,3.24 -7.8191,5.363 -2.384,2.119 -4.5313,4.505 -6.4406,6.935 -1.911,2.433 -3.5903,4.905 -5.0653,7.257 -2.9465,4.71 -5.1012,8.9 -6.591,11.82 l -2.3031,4.611 c 0.009,-0.002 -0.2473,-1.842 -0.3375,-5.2 -0.0699,-3.356 0.0047,-8.25 1.1429,-14.315 0.5778,-3.03 1.4348,-6.351 2.777,-9.861 1.3449,-3.504 3.1832,-7.208 5.802,-10.838 2.6074,-3.62 6.046,-7.162 10.3503,-10.003 2.1464,-1.416 4.4954,-2.65 6.9784,-3.632 2.479,-0.984 5.104,-1.718 7.745,-2.176 l 0.92,-0.153 c 0.322,-0.051 0.697,-0.107 1.041,-0.151 0.703,-0.09 1.403,-0.157 2.097,-0.206 1.387,-0.092 2.753,-0.101 4.092,-0.042 2.678,0.122 5.245,0.519 7.68,1.114 4.872,1.198 9.22,3.168 12.987,5.549 3.768,2.382 6.957,5.196 9.523,8.168 2.567,2.973 4.501,6.114 5.831,9.138 1.336,3.028 2.064,5.93 2.375,8.467 0.316,2.541 0.228,4.715 0.015,6.434 -0.214,1.727 -0.548,3.008 -0.801,3.863 -0.256,0.852 -0.43,1.284 -0.427,1.284"
         id="path26"
         style="fill:#231f20;fill-opacity:1;fill-rule:nonzero;stroke:none" /><path
         d="m 127.338,508.085 c 0,0.014 2.455,0.056 6.875,0.601 2.21,0.278 4.912,0.692 8.033,1.354 3.119,0.666 6.661,1.577 10.52,2.9 3.857,1.326 8.041,3.061 12.363,5.441 4.314,2.384 8.785,5.421 13.004,9.397 4.209,3.962 8.153,8.911 11.105,14.777 0.368,0.73 0.721,1.475 1.058,2.231 l 0.888,2.054 c 0.695,1.652 1.28,3.365 1.743,5.113 0.929,3.496 1.371,7.12 1.379,10.709 0.007,3.593 -0.409,7.067 -1.115,10.363 -0.707,3.3 -1.703,6.427 -2.896,9.376 -0.299,0.737 -0.609,1.465 -0.934,2.18 l -0.244,0.535 c -0.081,0.175 -0.17,0.371 -0.226,0.477 l -0.168,0.341 -0.07,0.145 -0.102,0.236 c -0.554,1.255 -1.123,2.532 -1.721,3.818 -1.198,2.569 -2.519,5.18 -4.097,7.709 -1.573,2.526 -3.418,4.972 -5.576,7.115 -1.075,1.072 -2.226,2.063 -3.43,2.95 -0.301,0.222 -0.606,0.434 -0.913,0.645 l -0.839,0.544 c -0.575,0.365 -1.166,0.724 -1.745,1.047 -2.324,1.307 -4.591,2.278 -6.77,3.075 -2.181,0.79 -4.274,1.402 -6.272,1.9 -3.996,0.989 -7.602,1.546 -10.766,1.918 -3.162,0.369 -5.882,0.541 -8.104,0.633 -4.439,0.175 -6.89,0.06 -6.891,0.069 l 6.29,-2.706 c 2.006,-0.875 4.445,-1.955 7.211,-3.264 2.761,-1.313 5.859,-2.854 9.082,-4.704 1.609,-0.923 3.246,-1.93 4.853,-3.03 1.604,-1.102 3.18,-2.302 4.602,-3.599 0.357,-0.328 0.689,-0.651 1.034,-0.996 l 0.531,-0.536 c 0.148,-0.16 0.294,-0.321 0.437,-0.487 0.573,-0.662 1.111,-1.373 1.621,-2.14 1.017,-1.537 1.922,-3.305 2.755,-5.304 0.835,-1.997 1.598,-4.22 2.38,-6.637 l 1.208,-3.771 0.08,-0.246 0.114,-0.334 c 0.084,-0.25 0.148,-0.418 0.221,-0.614 l 0.172,-0.475 0.146,-0.425 c 0.191,-0.567 0.377,-1.138 0.555,-1.712 1.409,-4.588 2.285,-9.4 2.275,-14.054 -0.006,-2.326 -0.232,-4.552 -0.687,-6.653 -0.225,-1.05 -0.508,-2.07 -0.846,-3.057 -0.107,-0.301 -0.244,-0.669 -0.367,-1.036 l -0.296,-0.856 c -0.194,-0.547 -0.399,-1.09 -0.613,-1.625 -1.708,-4.288 -4.056,-8.235 -6.796,-11.801 -2.737,-3.57 -5.842,-6.756 -9.01,-9.573 -3.174,-2.82 -6.406,-5.278 -9.483,-7.42 -6.167,-4.281 -11.667,-7.338 -15.502,-9.421 -3.853,-2.067 -6.062,-3.165 -6.056,-3.177"
         id="path28"
         style="fill:#231f20;fill-opacity:1;fill-rule:nonzero;stroke:none" /><path
         d="m 99.3648,509.825 c 0.0051,0.005 -0.5214,0.282 -1.3812,0.935 -0.8582,0.654 -2.0133,1.72 -3.1734,3.305 -1.1711,1.58 -2.334,3.672 -3.5207,6.248 -0.5965,1.291 -1.204,2.699 -1.8747,4.23 -0.3367,0.766 -0.6882,1.561 -1.0714,2.389 -0.1926,0.416 -0.3918,0.837 -0.6032,1.268 l -0.1949,0.375 -0.1801,0.332 -0.341,0.639 c -1.7312,3.279 -3.6371,6.809 -5.5672,10.561 -1.925,3.75 -3.8812,7.727 -5.5836,11.858 -1.6941,4.121 -3.1324,8.429 -3.7726,12.568 l -0.1121,0.773 c -0.0235,0.219 -0.0532,0.427 -0.0602,0.604 -0.0515,0.576 -0.0992,1.158 -0.1379,1.742 -0.0777,1.171 -0.1273,2.355 -0.1484,3.544 -0.0422,2.378 0.0332,4.777 0.2504,7.127 0.4258,4.7 1.4472,9.007 3.0609,12.17 0.8039,1.587 1.7281,2.88 2.7926,3.929 0.5348,0.528 1.107,0.996 1.7352,1.417 0.132,0.093 0.4195,0.257 0.6441,0.39 l 0.7066,0.409 c 0.4692,0.269 0.9414,0.529 1.4129,0.784 7.5547,4.075 15.5602,6.276 22.5841,7.801 3.511,0.761 6.776,1.363 9.666,1.893 l 7.465,1.373 c 4.121,0.78 6.399,1.322 6.397,1.322 -0.002,0 -2.273,0.54 -6.379,1.384 -2.055,0.418 -4.571,0.912 -7.522,1.399 -2.954,0.483 -6.345,0.965 -10.173,1.268 -3.827,0.297 -8.1021,0.416 -12.7752,0.04 -4.664,-0.376 -9.7398,-1.273 -14.9258,-3.015 -0.6465,-0.219 -1.2965,-0.447 -1.9457,-0.691 -0.3222,-0.123 -0.6519,-0.246 -0.9707,-0.376 -0.3332,-0.133 -0.6082,-0.235 -1.0316,-0.42 -1.5942,-0.702 -3.159,-1.59 -4.6235,-2.641 -2.939,-2.098 -5.4207,-4.85 -7.3074,-7.814 -1.8996,-2.973 -3.2496,-6.152 -4.2113,-9.35 -0.9605,-3.203 -1.5387,-6.443 -1.8387,-9.68 -0.2976,-3.236 -0.3109,-6.395 -0.1117,-9.476 0.0996,-1.54 0.2535,-3.064 0.4598,-4.569 0.1027,-0.753 0.2191,-1.501 0.3484,-2.247 0.0762,-0.484 0.1746,-0.929 0.2664,-1.365 0.0903,-0.396 0.1805,-0.791 0.2801,-1.178 0.7852,-3.11 1.8629,-5.959 3.0711,-8.587 1.2101,-2.629 2.5566,-5.04 3.957,-7.287 2.8078,-4.486 5.8168,-8.322 8.7344,-11.735 2.9234,-3.409 5.7676,-6.387 8.3828,-9.041 l 0.2445,-0.247 0.2239,-0.22 0.4062,-0.4 0.8731,-0.944 1.7097,-1.894 c 1.1258,-1.255 2.2258,-2.461 3.311,-3.562 2.1632,-2.209 4.2882,-3.968 6.2007,-5.118 1.9083,-1.164 3.5563,-1.711 4.6598,-1.961 1.111,-0.245 1.6953,-0.25 1.6945,-0.259"
         id="path30"
         style="fill:#231f20;fill-opacity:1;fill-rule:nonzero;stroke:none" /><path
         d="m 201.682,567.688 c -0.013,0.004 0.586,2.784 1.208,7.92 0.299,2.567 0.592,5.732 0.672,9.461 0.074,3.727 -0.064,8.03 -0.792,12.816 -0.182,1.195 -0.404,2.421 -0.669,3.67 -0.135,0.628 -0.279,1.255 -0.437,1.899 -0.084,0.336 -0.174,0.675 -0.273,1.02 l -0.279,0.966 c -0.766,2.583 -1.752,5.267 -3.067,7.984 -1.315,2.713 -2.966,5.458 -5.011,8.079 -2.04,2.621 -4.471,5.1 -7.185,7.3 -2.712,2.205 -5.688,4.133 -8.779,5.805 -3.091,1.672 -6.298,3.1 -9.547,4.364 -0.814,0.317 -1.629,0.622 -2.447,0.921 -0.847,0.303 -1.553,0.561 -2.471,0.872 -1.755,0.592 -3.55,1.125 -5.378,1.585 -3.657,0.926 -7.446,1.569 -11.286,1.91 -7.69,0.692 -15.161,0.129 -22.057,-1.097 -6.909,-1.229 -13.279,-3.095 -19.135,-5.138 -2.93,-1.025 -5.7338,-2.099 -8.4224,-3.183 l -0.5489,-0.22 c -0.1961,-0.075 -0.3797,-0.154 -0.5632,-0.232 l -0.8801,-0.383 c -0.5934,-0.252 -1.1989,-0.5 -1.8094,-0.746 -1.2242,-0.491 -2.4676,-0.972 -3.7047,-1.449 -4.9648,-1.905 -9.7758,-3.81 -14.0461,-5.933 -4.2742,-2.111 -8.0461,-4.433 -11.0433,-6.941 -3.0047,-2.492 -5.1848,-5.189 -6.4641,-7.617 -1.3012,-2.431 -1.7391,-4.502 -1.9129,-5.866 -0.166,-1.375 -0.1098,-2.085 -0.1203,-2.085 0.0098,-0.004 0.2277,0.686 0.8316,1.868 0.6059,1.173 1.6383,2.825 3.3719,4.469 1.7231,1.654 4.1469,3.258 7.2289,4.607 3.0789,1.356 6.8004,2.47 11.0434,3.422 4.2515,0.964 9.0023,1.737 14.2984,2.68 1.3274,0.239 2.691,0.493 4.1051,0.786 0.7074,0.148 1.4277,0.305 2.166,0.478 l 1.1199,0.274 c 0.1485,0.037 0.2989,0.072 0.4407,0.098 l 0.4645,0.102 c 2.724,0.609 5.513,1.217 8.353,1.798 11.358,2.306 23.576,4.166 35.747,3.065 3.043,-0.27 6.014,-0.717 8.909,-1.33 1.448,-0.308 2.876,-0.657 4.287,-1.047 l 2.242,-0.645 2.2,-0.657 c 5.806,-1.779 10.983,-3.787 15.269,-6.386 2.146,-1.297 4.084,-2.741 5.835,-4.34 1.752,-1.599 3.319,-3.359 4.719,-5.225 1.402,-1.865 2.637,-3.834 3.739,-5.828 l 0.406,-0.746 c 0.125,-0.224 0.245,-0.456 0.365,-0.691 0.246,-0.496 0.49,-1.002 0.726,-1.502 0.467,-1.004 0.906,-2.002 1.312,-2.993 1.629,-3.963 2.799,-7.774 3.708,-11.192 0.906,-3.42 1.557,-6.448 2.065,-8.939 0.998,-4.991 1.483,-7.815 1.496,-7.808"
         id="path32"
         style="fill:#231f20;fill-opacity:1;fill-rule:nonzero;stroke:none" /><path
         d="m 165.256,641.284 c -0.011,-0.002 -0.016,0.683 -0.289,1.98 -0.278,1.291 -0.867,3.203 -2.117,5.47 -0.625,1.132 -1.409,2.348 -2.391,3.606 l -0.378,0.474 -0.196,0.236 -0.22,0.255 -0.46,0.491 -0.442,0.461 c -0.603,0.615 -1.247,1.232 -1.935,1.848 -2.752,2.464 -6.169,4.896 -10.16,7.175 -3.996,2.275 -8.558,4.407 -13.678,6.221 -2.56,0.908 -5.261,1.73 -8.126,2.422 -2.87,0.689 -5.892,1.257 -9.182,1.55 l -4.465,0.325 -4.439,0.312 c -3.028,0.195 -6.201,0.356 -9.5382,0.361 -3.3359,0.004 -6.8421,-0.148 -10.4957,-0.65 -3.6468,-0.503 -7.4531,-1.367 -11.2191,-2.796 -3.7645,-1.419 -7.3668,-3.387 -10.5402,-5.76 -1.5895,-1.185 -3.0743,-2.464 -4.4477,-3.803 l -0.5137,-0.512 c -0.1793,-0.178 -0.3464,-0.351 -0.5023,-0.515 -0.327,-0.341 -0.6301,-0.669 -0.9356,-1.003 -0.6093,-0.666 -1.2007,-1.35 -1.775,-2.041 -2.2976,-2.767 -4.2953,-5.717 -5.9589,-8.748 -1.6657,-3.027 -2.9953,-6.133 -4.0246,-9.206 -2.0582,-6.162 -2.9204,-12.144 -3.2024,-17.591 -0.2769,-5.458 0.0055,-10.426 0.4481,-14.879 0.4492,-4.454 1.066,-8.405 1.6578,-11.851 0.5965,-3.447 1.1734,-6.391 1.6511,-8.797 0.9622,-4.81 1.5309,-7.48 1.5321,-7.482 -0.0012,0 0.5125,2.688 1.1722,7.564 0.3329,2.437 0.7016,5.419 1.1211,8.851 0.4215,3.434 0.8907,7.323 1.5196,11.532 0.632,4.203 1.4254,8.734 2.6086,13.36 1.1843,4.622 2.7746,9.332 5.0265,13.797 2.2473,4.472 5.1656,8.673 8.8477,12.46 0.4605,0.473 0.9297,0.943 1.4136,1.403 l 0.7247,0.683 c 0.1218,0.112 0.2375,0.217 0.3441,0.309 l 0.3488,0.306 c 0.9477,0.818 1.9289,1.578 2.952,2.275 2.0449,1.399 4.25,2.543 6.6695,3.46 4.8242,1.841 10.3547,2.648 16.1442,3.076 2.8917,0.217 5.8437,0.348 8.8107,0.483 l 4.458,0.215 2.231,0.126 2.001,0.133 c 2.436,0.139 4.978,0.082 7.467,-0.078 2.494,-0.164 4.952,-0.429 7.33,-0.767 4.76,-0.676 9.205,-1.618 13.189,-2.717 3.986,-1.1 7.517,-2.366 10.477,-3.745 0.74,-0.345 1.443,-0.699 2.111,-1.056 l 0.937,-0.516 c 0.059,-0.031 0.129,-0.075 0.208,-0.125 l 0.225,-0.145 0.438,-0.287 c 1.153,-0.779 2.162,-1.581 3.025,-2.363 1.732,-1.558 2.872,-3.03 3.566,-4.092 0.692,-1.065 0.968,-1.7 0.976,-1.695"
         id="path34"
         style="fill:#231f20;fill-opacity:1;fill-rule:nonzero;stroke:none" /><path
         d="m 208.373,511.933 c 0.001,0.004 0.179,-0.1 0.558,-0.201 0.378,-0.096 0.955,-0.175 1.727,-0.138 1.541,0.064 3.767,0.549 6.49,1.463 1.364,0.454 2.857,1.012 4.465,1.663 1.604,0.644 3.342,1.405 5.137,2.167 l 0.66,0.271 c 0.18,0.067 0.453,0.176 0.695,0.276 0.508,0.208 1.023,0.433 1.544,0.673 1.04,0.479 2.108,1.029 3.186,1.664 2.152,1.266 4.362,2.906 6.393,5.013 2.033,2.099 3.839,4.66 5.281,7.467 0.723,1.401 1.361,2.862 1.927,4.359 0.283,0.748 0.545,1.505 0.793,2.268 l 0.357,1.124 c 0.118,0.388 0.235,0.802 0.346,1.207 1.766,6.521 2.121,13.87 0.716,21.367 -0.351,1.875 -0.816,3.761 -1.399,5.643 -0.293,0.939 -0.615,1.879 -0.97,2.815 -0.176,0.469 -0.362,0.937 -0.555,1.404 l -0.296,0.699 -0.177,0.398 -0.201,0.434 -0.74,1.446 c -0.232,0.436 -0.466,0.869 -0.704,1.297 -0.474,0.853 -0.961,1.685 -1.447,2.494 -0.973,1.619 -1.951,3.149 -2.856,4.603 -1.823,2.91 -3.294,5.512 -4.119,7.927 -0.21,0.604 -0.387,1.202 -0.528,1.802 -0.072,0.298 -0.135,0.597 -0.19,0.898 l -0.192,1.151 c -0.253,1.568 -0.435,3.163 -0.571,4.843 -0.536,6.709 -0.242,13.994 -0.493,21.474 -0.128,3.743 -0.389,7.552 -0.983,11.376 -0.592,3.815 -1.528,7.651 -2.964,11.303 -1.428,3.649 -3.367,7.086 -5.69,10.039 -1.155,1.481 -2.401,2.84 -3.695,4.078 -0.333,0.321 -0.607,0.557 -0.931,0.861 -0.322,0.294 -0.687,0.617 -1.039,0.914 -0.714,0.6 -1.455,1.169 -2.221,1.695 -3.066,2.127 -6.597,3.534 -9.975,4.071 -3.389,0.56 -6.554,0.352 -9.345,-0.151 -2.801,-0.509 -5.271,-1.306 -7.504,-2.16 -2.232,-0.859 -4.23,-1.786 -6.055,-2.689 -3.643,-1.813 -6.617,-3.509 -9.074,-4.843 -4.88,-2.708 -7.732,-3.96 -7.735,-3.963 0,0.003 0.778,0.054 2.257,0.255 1.476,0.199 3.654,0.573 6.419,1.171 2.763,0.584 6.114,1.408 9.932,2.207 1.907,0.393 3.931,0.774 6.034,1.048 2.101,0.273 4.287,0.441 6.445,0.348 2.158,-0.089 4.273,-0.451 6.166,-1.195 1.898,-0.739 3.571,-1.851 5.081,-3.371 0.378,-0.381 0.745,-0.788 1.104,-1.218 0.182,-0.221 0.344,-0.427 0.538,-0.677 0.186,-0.246 0.437,-0.549 0.611,-0.788 0.742,-0.994 1.424,-2.034 2.03,-3.126 1.218,-2.176 2.142,-4.546 2.793,-7.135 1.319,-5.174 1.469,-11.263 1.233,-18.086 -0.11,-3.413 -0.304,-7.01 -0.409,-10.806 -0.101,-3.796 -0.122,-7.796 0.213,-12.015 0.169,-2.105 0.431,-4.257 0.817,-6.384 l 0.131,-0.719 0.081,-0.432 0.092,-0.461 c 0.127,-0.615 0.275,-1.224 0.437,-1.826 0.322,-1.204 0.714,-2.375 1.151,-3.499 0.877,-2.251 1.947,-4.301 3.052,-6.143 1.108,-1.846 2.25,-3.491 3.338,-5.006 l 3.078,-4.229 c 0.475,-0.659 0.928,-1.304 1.357,-1.935 l 0.627,-0.938 0.3,-0.465 0.135,-0.208 0.095,-0.138 0.088,-0.143 0.043,-0.071 0.061,-0.111 0.255,-0.462 c 0.167,-0.31 0.33,-0.622 0.488,-0.936 0.318,-0.627 0.616,-1.265 0.899,-1.907 0.564,-1.284 1.06,-2.591 1.485,-3.913 1.705,-5.286 2.293,-10.715 1.854,-15.68 -0.029,-0.315 -0.057,-0.614 -0.095,-0.933 l -0.126,-0.984 c -0.086,-0.636 -0.179,-1.258 -0.286,-1.866 -0.215,-1.216 -0.473,-2.38 -0.787,-3.487 -0.625,-2.214 -1.469,-4.199 -2.55,-5.981 -1.077,-1.784 -2.392,-3.366 -3.834,-4.768 -0.719,-0.704 -1.47,-1.359 -2.231,-1.974 -0.38,-0.308 -0.763,-0.607 -1.149,-0.895 l -0.634,-0.462 -0.635,-0.476 -4.36,-3.409 c -1.331,-1.027 -2.559,-1.941 -3.685,-2.729 -2.245,-1.581 -4.088,-2.646 -5.426,-3.152 -0.662,-0.259 -1.214,-0.37 -1.582,-0.399 -0.37,-0.026 -0.557,0.011 -0.557,0.007"
         id="path36"
         style="fill:#231f20;fill-opacity:1;fill-rule:nonzero;stroke:none" /><path
         d="m 91.6594,505.242 c -0.0168,-0.021 2.3109,-0.74 5.6023,-3.195 1.6602,-1.215 3.5603,-2.848 5.8173,-4.821 1.132,-0.983 2.359,-2.048 3.743,-3.156 1.387,-1.107 2.927,-2.265 4.758,-3.371 l 0.701,-0.411 0.363,-0.203 c 0.124,-0.066 0.232,-0.126 0.413,-0.215 0.083,-0.042 0.163,-0.08 0.245,-0.115 l 0.122,-0.055 0.087,-0.042 0.351,-0.172 0.712,-0.337 c 0.958,-0.449 1.95,-0.883 2.977,-1.299 2.053,-0.833 4.242,-1.594 6.559,-2.252 4.629,-1.315 9.775,-2.202 15.265,-2.412 5.486,-0.213 11.314,0.254 17.202,1.573 0.716,0.164 1.407,0.321 2.146,0.507 0.738,0.186 1.478,0.383 2.218,0.598 1.483,0.427 2.968,0.91 4.448,1.457 2.96,1.093 5.902,2.432 8.755,4.03 5.713,3.194 10.74,7.287 14.86,11.752 4.137,4.467 7.394,9.272 9.968,14.001 0.643,1.183 1.245,2.364 1.809,3.537 0.283,0.587 0.556,1.171 0.82,1.753 l 0.387,0.872 0.192,0.434 0.091,0.217 0.08,0.191 c 0.104,0.25 0.21,0.526 0.311,0.752 l 0.318,0.73 0.711,1.603 c 0.465,1.062 0.915,2.112 1.349,3.145 1.739,4.138 3.237,8.042 4.521,11.642 0.64,1.802 1.228,3.525 1.762,5.166 l 0.391,1.213 0.095,0.299 c 0.033,0.104 0.053,0.181 0.109,0.328 0.101,0.258 0.17,0.522 0.244,0.79 0.234,0.94 0.375,1.817 0.467,2.658 0.18,1.68 0.163,3.163 0.12,4.487 -0.047,1.323 -0.125,2.494 -0.175,3.539 -0.111,2.085 -0.08,3.691 0.03,4.795 0.105,1.102 0.236,1.689 0.229,1.689 0.005,-0.004 -0.368,-0.465 -0.937,-1.463 -0.573,-0.992 -1.292,-2.564 -1.998,-4.624 -0.357,-1.028 -0.718,-2.167 -1.124,-3.367 -0.406,-1.198 -0.86,-2.453 -1.44,-3.653 -0.287,-0.595 -0.613,-1.186 -0.969,-1.724 -0.076,-0.1 -0.154,-0.208 -0.244,-0.303 -0.035,-0.035 -0.104,-0.14 -0.162,-0.217 l -0.18,-0.248 -0.734,-1.012 -3.146,-4.325 -7.179,-9.879 -1.957,-2.701 -1.001,-1.381 -0.549,-0.777 c -0.194,-0.275 -0.352,-0.522 -0.529,-0.785 l -0.13,-0.198 -0.118,-0.168 -0.238,-0.34 -0.477,-0.682 -0.977,-1.359 c -0.66,-0.906 -1.34,-1.809 -2.039,-2.704 -2.799,-3.583 -5.92,-7.058 -9.412,-10.21 -3.49,-3.157 -7.351,-5.984 -11.615,-8.372 -2.131,-1.195 -4.315,-2.253 -6.534,-3.194 -1.111,-0.47 -2.232,-0.905 -3.359,-1.317 -0.562,-0.206 -1.129,-0.401 -1.695,-0.593 l -1.766,-0.576 c -4.529,-1.447 -9.058,-2.426 -13.465,-2.989 -4.409,-0.564 -8.694,-0.706 -12.739,-0.522 -2.023,0.091 -3.987,0.264 -5.879,0.501 -0.946,0.119 -1.873,0.254 -2.782,0.402 l -0.678,0.116 -0.336,0.057 -0.084,0.016 -0.048,0.004 -0.094,0.007 c -0.043,-0.002 -0.156,0.022 -0.254,0.044 l -0.298,0.067 -0.597,0.145 c -1.595,0.408 -3.188,0.965 -4.722,1.543 -1.535,0.582 -3.015,1.187 -4.427,1.746 -2.821,1.127 -5.372,2.046 -7.5155,2.59 -2.1453,0.554 -3.8621,0.749 -5.0086,0.78 -1.1489,0.036 -1.7375,-0.044 -1.7375,-0.037"
         id="path38"
         style="fill:#231f20;fill-opacity:1;fill-rule:nonzero;stroke:none" /><path
         d="m 67.8707,521.225 c 0.0106,-0.002 0.2719,-2.802 1.1063,-7.836 0.4273,-2.517 1.0074,-5.596 1.9039,-9.157 0.9019,-3.557 2.1207,-7.608 3.9582,-11.993 0.4589,-1.093 0.9593,-2.207 1.5011,-3.338 0.2735,-0.565 0.5469,-1.124 0.8844,-1.753 l 0.8777,-1.641 c 1.1704,-2.18 2.445,-4.504 3.9899,-6.919 1.5473,-2.408 3.3656,-4.926 5.7144,-7.355 1.1735,-1.211 2.4825,-2.396 3.9391,-3.498 0.7305,-0.549 1.4941,-1.078 2.2941,-1.577 0.3997,-0.25 0.8094,-0.491 1.2254,-0.725 l 0.4094,-0.219 0.4109,-0.199 0.5672,-0.284 c 3.0442,-1.491 6.2953,-2.723 9.6513,-3.683 3.357,-0.966 6.816,-1.66 10.298,-2.142 6.97,-0.97 14.007,-1.09 20.867,-1.026 l 5.058,0.069 5.034,0.084 c 3.433,0.082 6.97,0.263 10.543,0.719 3.568,0.454 7.192,1.185 10.748,2.398 3.546,1.204 7.031,2.922 10.087,5.211 1.529,1.137 2.944,2.412 4.206,3.776 0.329,0.352 0.594,0.664 0.863,0.976 0.258,0.303 0.512,0.602 0.789,0.943 0.539,0.659 1.045,1.321 1.517,1.983 1.907,2.648 3.361,5.257 4.633,7.728 1.267,2.475 2.342,4.818 3.361,7.01 0.508,1.093 1.003,2.149 1.492,3.166 0.242,0.507 0.488,1.002 0.743,1.511 l 0.77,1.547 c 1.999,4.035 3.792,7.787 5.214,11.158 1.43,3.37 2.495,6.354 3.244,8.818 1.493,4.933 1.834,7.74 1.859,7.733 -0.019,0.016 -1.404,-2.466 -4.288,-6.548 -1.446,-2.038 -3.284,-4.458 -5.515,-7.189 -2.224,-2.738 -4.848,-5.779 -7.759,-9.232 l -1.089,-1.297 c -0.377,-0.448 -0.767,-0.921 -1.155,-1.402 -0.773,-0.961 -1.536,-1.943 -2.295,-2.937 -1.517,-1.988 -3.023,-4.025 -4.576,-5.999 -1.551,-1.972 -3.152,-3.885 -4.846,-5.545 -0.42,-0.418 -0.849,-0.817 -1.282,-1.197 l -0.694,-0.6 c -0.235,-0.199 -0.47,-0.4 -0.664,-0.547 -0.819,-0.633 -1.691,-1.199 -2.626,-1.702 -1.869,-1.003 -4.005,-1.755 -6.405,-2.284 -2.397,-0.531 -5.047,-0.837 -7.887,-0.986 -2.846,-0.148 -5.871,-0.141 -9.09,-0.094 l -2.455,0.035 -2.566,0.024 c -1.717,0.007 -3.428,-0.002 -5.126,-0.017 -6.798,-0.07 -13.131,-0.191 -18.986,0.19 -5.854,0.365 -11.209,1.244 -16.05,2.828 l -0.451,0.152 c -0.05,0.017 -0.044,0.012 -0.062,0.017 l -0.035,0.004 c -0.022,0.005 -0.006,-0.011 -0.088,0.023 -0.244,0.088 -0.486,0.185 -0.726,0.288 -0.481,0.203 -0.9574,0.431 -1.4312,0.676 -0.9437,0.498 -1.8734,1.085 -2.7848,1.749 -1.8234,1.324 -3.5703,2.957 -5.2445,4.708 -1.6758,1.751 -3.2824,3.622 -4.8719,5.475 l -0.5957,0.694 c -0.1949,0.226 -0.4074,0.479 -0.5734,0.662 -0.325,0.368 -0.684,0.811 -1.0324,1.24 -0.6926,0.861 -1.3582,1.722 -1.9946,2.579 -2.5441,3.43 -4.6507,6.787 -6.43,9.817 -1.7778,3.032 -3.2321,5.738 -4.4172,7.962 l -3.6676,6.968"
         id="path40"
         style="fill:#231f20;fill-opacity:1;fill-rule:nonzero;stroke:none" /><path
         d="m 97.9781,461.008 c 0.0078,0.023 -2.1949,-0.726 -6.0301,-0.447 -1.9132,0.129 -4.2261,0.482 -6.8464,1.12 -2.6153,0.638 -5.5481,1.547 -8.6293,2.78 -1.5371,0.615 -3.1133,1.315 -4.6477,2.108 -0.7644,0.396 -1.5195,0.816 -2.2254,1.256 -0.3531,0.222 -0.6929,0.448 -1.0086,0.673 -0.1582,0.116 -0.3093,0.229 -0.4523,0.341 -0.1395,0.111 -0.3,0.239 -0.3332,0.299 -0.268,0.314 -0.4988,0.676 -0.7406,1.136 -0.2379,0.463 -0.4782,1.027 -0.7036,1.7 -0.4539,1.346 -0.8265,3.095 -1.1082,5.058 -0.2855,1.97 -0.4925,4.153 -0.7015,6.499 -0.2137,2.353 -0.4196,4.863 -0.7949,7.615 -0.1903,1.381 -0.4239,2.822 -0.7735,4.376 -0.3598,1.555 -0.8047,3.227 -1.6293,5.124 -1.2375,2.888 -2.7082,5.545 -4.2519,8.037 -3.1036,4.976 -6.3262,9.131 -9.0668,13.001 -2.7528,3.857 -5.0282,7.399 -6.4887,10.777 -0.7332,1.689 -1.2742,3.336 -1.616,4.976 -0.1719,0.819 -0.2946,1.638 -0.3696,2.46 -0.0367,0.409 -0.0632,0.818 -0.0765,1.228 l -0.0121,0.617 c -0.0012,0.207 0.0023,0.418 -0.0035,0.57 -0.0055,0.077 0.0043,0.185 0.0078,0.28 0.0058,0.103 0.0078,0.191 0.0187,0.313 l 0.0578,0.686 c 0.0418,0.456 0.0883,0.909 0.1414,1.361 0.1051,0.904 0.2329,1.793 0.3762,2.669 0.2871,1.751 0.6445,3.448 1.0414,5.07 1.6051,6.494 3.7977,11.759 5.4321,15.355 1.6593,3.602 2.757,5.582 2.7417,5.587 0.0098,-0.014 -1.8738,-1.239 -4.9199,-3.982 -1.516,-1.377 -3.3168,-3.146 -5.2461,-5.381 -1.9277,-2.234 -3.9906,-4.932 -5.9687,-8.182 -0.9871,-1.627 -1.952,-3.388 -2.852,-5.304 -0.4492,-0.956 -0.8832,-1.95 -1.2937,-2.983 -0.2059,-0.516 -0.4039,-1.043 -0.5965,-1.58 l -0.2848,-0.811 -0.1437,-0.442 c -0.0485,-0.157 -0.0985,-0.304 -0.1449,-0.483 l -0.2555,-0.972 c -0.0785,-0.312 -0.1527,-0.626 -0.2227,-0.944 -0.1382,-0.638 -0.2578,-1.289 -0.3574,-1.951 -0.1984,-1.322 -0.3133,-2.685 -0.3363,-4.071 -0.0512,-2.775 0.282,-5.627 0.9262,-8.395 0.6441,-2.772 1.5902,-5.461 2.7101,-8.025 1.1203,-2.565 2.4133,-5.011 3.7723,-7.362 2.7207,-4.697 5.7285,-9.031 8.3172,-13.206 1.2929,-2.083 2.4429,-4.072 3.3683,-5.965 0.2699,-0.492 0.5821,-1.322 0.8703,-2.265 0.2903,-0.95 0.5637,-2.018 0.8274,-3.138 0.5269,-2.247 1.0156,-4.68 1.5801,-7.151 0.5668,-2.476 1.2003,-5.007 2.0511,-7.567 0.8575,-2.555 1.9149,-5.167 3.5305,-7.734 0.8113,-1.28 1.7762,-2.546 2.943,-3.706 1.1632,-1.16 2.5422,-2.203 4.0425,-2.973 0.4098,-0.215 0.7008,-0.336 1.0145,-0.472 0.3094,-0.13 0.6141,-0.25 0.9129,-0.36 0.5996,-0.224 1.1797,-0.416 1.7496,-0.584 1.1367,-0.341 2.2289,-0.603 3.2906,-0.818 2.1231,-0.424 4.1274,-0.672 6.0364,-0.818 7.6179,-0.556 13.746,0.467 17.7351,1.877 1.9965,0.701 3.4352,1.498 4.3371,2.111 0.902,0.614 1.2949,1.019 1.2996,1.012"
         id="path42"
         style="fill:#231f20;fill-opacity:1;fill-rule:nonzero;stroke:none" /><path
         d="m 24.3816,554.307 c 0.0071,-0.003 0.0395,1.071 0.161,2.864 0.1215,1.795 0.3605,4.301 0.7262,7.225 0.7285,5.857 1.916,13.39 2.9671,20.699 1.0746,7.357 1.8383,12.956 4.6161,17.248 1.3492,2.134 3.121,3.805 4.4882,4.905 1.3754,1.102 2.2922,1.689 2.2809,1.698 -0.0063,-0.014 -0.9359,0.496 -2.8215,0.952 -0.9437,0.223 -2.1355,0.416 -3.5734,0.435 -1.434,0.023 -3.1199,-0.137 -4.9617,-0.65 -1.8383,-0.507 -3.827,-1.382 -5.7473,-2.674 -1.9215,-1.288 -3.7645,-2.988 -5.3492,-4.989 -3.1918,-4.007 -5.3024,-9.134 -6.0641,-14.435 -0.768,-5.321 -0.1957,-10.308 0.9707,-14.598 1.177,-4.301 2.9664,-7.929 4.8125,-10.751 1.8457,-2.831 3.7484,-4.853 5.1633,-6.117 1.4199,-1.265 2.3363,-1.808 2.3312,-1.812"
         id="path44"
         style="fill:#231f20;fill-opacity:1;fill-rule:nonzero;stroke:none" /></g></g></svg>